#Comment line ignore any data following # character 
#Hierarchical Translation and Rotation (.htr) file 
[Header]	
#Header keywords are followed by a single value 
FileType HTR		#Single word string
DataType HTRS		#Translation followed by rotation and scale data
FileVersion 1		#integer
NumSegments 64		#integer
NumFrames 3		#integer
DataFrameRate 30		#integer, data frame rate in this file
EulerRotationOrder ZYX
CalibrationUnits mm
RotationUnits Degrees
GlobalAxisofGravity Y
BoneLengthAxis Y
ScaleFactor 1.00
[SegmentNames&Hierarchy]
#CHILD	PARENT
Pinger_Root GLOBAL
Pelvis Pinger_Root
L_Hip Pelvis
R_Hip Pelvis
Rear_Leg01 Pelvis
Spine1 Pelvis
L_Leg01 L_Hip
L_Leg02 L_Leg01
L_Leg03 L_Leg02
L_Foot L_Leg03
L_Toe1_01 L_Foot
L_Toe2_01 L_Foot
L_Toe3_01 L_Foot
planeAlignerLeft L_Foot
L_Toe1_02 L_Toe1_01
L_Toe1_03 L_Toe1_02
L_Toe2_02 L_Toe2_01
L_Toe2_03 L_Toe2_02
L_Toe3_02 L_Toe3_01
L_Toe3_03 L_Toe3_02
planeLockWeightLeft planeAlignerLeft
R_Leg01 R_Hip
R_Leg02 R_Leg01
R_Leg03 R_Leg02
R_Foot R_Leg03
planeAlignerRight R_Foot
R_Toe1_01 R_Foot
R_Toe2_01 R_Foot
R_Toe3_01 R_Foot
planeLockWeightRight planeAlignerRight
R_Toe1_02 R_Toe1_01
R_Toe1_03 R_Toe1_02
R_Toe2_02 R_Toe2_01
R_Toe2_03 R_Toe2_02
R_Toe3_02 R_Toe3_01
R_Toe3_03 R_Toe3_02
Rear_Leg02 Rear_Leg01
Rear_Leg03 Rear_Leg02
Rear_Leg04 Rear_Leg03
Rear_Foot Rear_Leg04
planeAlignerCenter Rear_Foot
Rear_Toe1_01 Rear_Foot
Rear_Toe2_01 Rear_Foot
Rear_Toe3_01 Rear_Foot
planeLockWeightCenter planeAlignerCenter
Rear_Toe1_02 Rear_Toe1_01
Rear_Toe1_03 Rear_Toe1_02
Rear_Toe2_02 Rear_Toe2_01
Rear_Toe2_03 Rear_Toe2_02
Rear_Toe3_02 Rear_Toe3_01
Rear_Toe3_03 Rear_Toe3_02
Back_Bone Spine1
Head Spine1
Motor_Bone Back_Bone
Ping_Mechanism Back_Bone
BN_LookIK Head
bottomMouth Head
L_Mouth01 Head
L_mouthFront Head
mouthGun Head
R_Mouth01 Head
R_mouthFront Head
TopMouth Head
weapon_bone Head
[BasePosition]
#SegmentName Tx, Ty, Tz, Rx, Ry, Rz, BoneLength
Pinger_Root 0.000000 0.000000 0.000000 -90.000000 0.000000 0.000000 10.000000 
Pelvis 0.000000 0.000000 0.000000 0.000000 0.000000 0.000000 10.000000 
L_Hip 0.000000 0.000000 0.000000 0.000000 0.000000 0.000000 10.000000 
R_Hip 0.000000 0.000000 0.000000 0.000000 0.000000 0.000000 10.000000 
Rear_Leg01 0.000000 0.000000 0.000000 0.000000 0.000000 0.000000 10.000000 
Spine1 0.000000 0.000000 0.000000 0.000000 0.000000 0.000000 10.000000 
L_Leg01 0.000000 0.000000 0.000000 0.000000 0.000000 0.000000 10.000000 
L_Leg02 0.000000 0.000000 0.000000 0.000000 0.000000 0.000000 10.000000 
L_Leg03 0.000000 0.000000 0.000000 0.000000 0.000000 0.000000 10.000000 
L_Foot 0.000000 0.000000 0.000000 0.000000 0.000000 0.000000 10.000000 
L_Toe1_01 0.000000 0.000000 0.000000 0.000000 0.000000 0.000000 10.000000 
L_Toe2_01 0.000000 0.000000 0.000000 0.000000 0.000000 0.000000 10.000000 
L_Toe3_01 0.000000 0.000000 0.000000 0.000000 0.000000 0.000000 10.000000 
planeAlignerLeft 0.000000 0.000000 0.000000 0.000000 0.000000 0.000000 10.000000 
L_Toe1_02 0.000000 0.000000 0.000000 0.000000 0.000000 0.000000 10.000000 
L_Toe1_03 0.000000 0.000000 0.000000 0.000000 0.000000 0.000000 10.000000 
L_Toe2_02 0.000000 0.000000 0.000000 0.000000 0.000000 0.000000 10.000000 
L_Toe2_03 0.000000 0.000000 0.000000 0.000000 0.000000 0.000000 10.000000 
L_Toe3_02 0.000000 0.000000 0.000000 0.000000 0.000000 0.000000 10.000000 
L_Toe3_03 0.000000 0.000000 0.000000 0.000000 0.000000 0.000000 10.000000 
planeLockWeightLeft 0.000000 0.000000 0.000000 0.000000 0.000000 0.000000 10.000000 
R_Leg01 0.000000 0.000000 0.000000 0.000000 0.000000 0.000000 10.000000 
R_Leg02 0.000000 0.000000 0.000000 0.000000 0.000000 0.000000 10.000000 
R_Leg03 0.000000 0.000000 0.000000 0.000000 0.000000 0.000000 10.000000 
R_Foot 0.000000 0.000000 0.000000 0.000000 0.000000 0.000000 10.000000 
planeAlignerRight 0.000000 0.000000 0.000000 0.000000 0.000000 0.000000 10.000000 
R_Toe1_01 0.000000 0.000000 0.000000 0.000000 0.000000 0.000000 10.000000 
R_Toe2_01 0.000000 0.000000 0.000000 0.000000 0.000000 0.000000 10.000000 
R_Toe3_01 0.000000 0.000000 0.000000 0.000000 0.000000 0.000000 10.000000 
planeLockWeightRight 0.000000 0.000000 0.000000 0.000000 0.000000 0.000000 10.000000 
R_Toe1_02 0.000000 0.000000 0.000000 0.000000 0.000000 0.000000 10.000000 
R_Toe1_03 0.000000 0.000000 0.000000 0.000000 0.000000 0.000000 10.000000 
R_Toe2_02 0.000000 0.000000 0.000000 0.000000 0.000000 0.000000 10.000000 
R_Toe2_03 0.000000 0.000000 0.000000 0.000000 0.000000 0.000000 10.000000 
R_Toe3_02 0.000000 0.000000 0.000000 0.000000 0.000000 0.000000 10.000000 
R_Toe3_03 0.000000 0.000000 0.000000 0.000000 0.000000 0.000000 10.000000 
Rear_Leg02 0.000000 0.000000 0.000000 0.000000 0.000000 0.000000 10.000000 
Rear_Leg03 0.000000 0.000000 0.000000 0.000000 0.000000 0.000000 10.000000 
Rear_Leg04 0.000000 0.000000 0.000000 0.000000 0.000000 0.000000 10.000000 
Rear_Foot 0.000000 0.000000 0.000000 0.000000 0.000000 0.000000 10.000000 
planeAlignerCenter 0.000000 0.000000 0.000000 0.000000 0.000000 0.000000 10.000000 
Rear_Toe1_01 0.000000 0.000000 0.000000 0.000000 0.000000 0.000000 10.000000 
Rear_Toe2_01 0.000000 0.000000 0.000000 0.000000 0.000000 0.000000 10.000000 
Rear_Toe3_01 0.000000 0.000000 0.000000 0.000000 0.000000 0.000000 10.000000 
planeLockWeightCenter 0.000000 0.000000 0.000000 0.000000 0.000000 0.000000 10.000000 
Rear_Toe1_02 0.000000 0.000000 0.000000 0.000000 0.000000 0.000000 10.000000 
Rear_Toe1_03 0.000000 0.000000 0.000000 0.000000 0.000000 0.000000 10.000000 
Rear_Toe2_02 0.000000 0.000000 0.000000 0.000000 0.000000 0.000000 10.000000 
Rear_Toe2_03 0.000000 0.000000 0.000000 0.000000 0.000000 0.000000 10.000000 
Rear_Toe3_02 0.000000 0.000000 0.000000 0.000000 0.000000 0.000000 10.000000 
Rear_Toe3_03 0.000000 0.000000 0.000000 0.000000 0.000000 0.000000 10.000000 
Back_Bone 0.000000 0.000000 0.000000 0.000000 0.000000 0.000000 10.000000 
Head 0.000000 0.000000 0.000000 0.000000 0.000000 0.000000 10.000000 
Motor_Bone 0.000000 0.000000 0.000000 0.000000 0.000000 0.000000 10.000000 
Ping_Mechanism 0.000000 0.000000 0.000000 0.000000 0.000000 0.000000 10.000000 
BN_LookIK 0.000000 0.000000 0.000000 0.000000 0.000000 0.000000 10.000000 
bottomMouth 0.000000 0.000000 0.000000 0.000000 0.000000 0.000000 10.000000 
L_Mouth01 0.000000 0.000000 0.000000 0.000000 0.000000 0.000000 10.000000 
L_mouthFront 0.000000 0.000000 0.000000 0.000000 0.000000 0.000000 10.000000 
mouthGun 0.000000 0.000000 0.000000 0.000000 0.000000 0.000000 10.000000 
R_Mouth01 0.000000 0.000000 0.000000 0.000000 0.000000 0.000000 10.000000 
R_mouthFront 0.000000 0.000000 0.000000 0.000000 0.000000 0.000000 10.000000 
TopMouth 0.000000 0.000000 0.000000 0.000000 0.000000 0.000000 10.000000 
weapon_bone 0.000000 0.000000 0.000000 0.000000 0.000000 0.000000 10.000000 
#Beginning of Data. Separated by tabs
#Fr	Tx	Ty	Tz	Rx	Ry	Rz	SF
[Pinger_Root]
66 -0.000020 2500.000000 0.000000 -0.000075 -0.000000 -0.000020 2500.000000
67 -0.000020 2500.000000 0.000000 -0.000075 -0.000000 -0.000020 2500.000000
68 -0.000020 2500.000000 0.000000 -0.000075 -0.000000 -0.000020 2500.000000
[Pelvis]
66 120.183815 879.392578 4266.324707 -75.217964 -70.417542 71.862701 4357.671387
67 112.995499 876.741699 4296.606934 -75.287926 -71.396324 71.465919 4386.602051
68 105.807358 874.091003 4326.889648 -75.449356 -72.917946 71.086411 4415.563965
[L_Hip]
66 5.766392 125.831482 872.656799 159.805878 -55.990459 117.443153 881.701050
67 5.766392 125.831482 872.656799 159.759369 -54.826866 118.006271 881.701050
68 5.766392 125.831482 872.656799 159.733459 -53.663197 118.552048 881.701050
[R_Hip]
66 5.765438 125.836372 -872.654907 36.628323 59.437809 123.578857 881.699829
67 5.765438 125.836372 -872.654907 36.879658 58.413254 123.867149 881.699829
68 5.765438 125.836372 -872.654907 37.114372 57.388000 124.139015 881.699829
[Rear_Leg01]
66 -192.298416 -925.602966 -0.001907 179.329971 5.543575 -159.627335 945.367432
67 -192.298416 -925.602966 -0.001907 178.949142 5.785104 -159.658081 945.367432
68 -192.298416 -925.602966 -0.001907 178.361740 5.865281 -159.147736 945.367432
[Spine1]
66 290.604584 5.007505 0.000477 1.366378 -4.963559 5.558754 290.647736
67 290.604584 5.007505 0.000477 1.885029 -4.830455 6.356534 290.647736
68 290.604584 5.007505 0.000477 2.495667 -4.565251 7.686485 290.647736
[L_Leg01]
66 761.932007 -0.002384 -0.069261 17.020220 -32.765305 -17.113161 761.932068
67 761.932007 -0.002384 -0.069261 17.641888 -30.875095 -17.520569 761.932068
68 761.932007 -0.002384 -0.069261 18.236483 -28.981316 -17.896856 761.932068
[L_Leg02]
66 1441.140503 -0.000954 -0.000715 2.185054 -0.071641 -115.703941 1441.140503
67 1441.140503 -0.000954 -0.000715 2.150596 -0.069200 -115.050415 1441.140503
68 1441.140503 -0.000954 -0.000715 2.109104 -0.065325 -114.786743 1441.140503
[L_Leg03]
66 1686.963989 -0.000715 -0.000954 -0.041265 0.018951 121.611412 1686.963989
67 1686.963989 -0.000715 -0.000954 -0.040447 0.018662 121.466011 1686.963989
68 1686.963989 -0.000715 -0.000954 -0.039629 0.018375 121.320633 1686.963989
[L_Foot]
66 3041.570068 -30.715107 11.297464 0.729420 10.801382 44.435680 3041.746094
67 3041.570068 -30.715107 11.297464 0.943105 11.079199 45.042492 3041.746094
68 3041.570068 -30.715107 11.297464 1.159983 11.354777 45.650944 3041.746094
[L_Toe1_01]
66 -188.216690 -224.732346 -21.137953 92.595985 -5.788540 -171.635620 293.899567
67 -188.216690 -224.732346 -21.137953 92.742668 -5.902099 -171.883972 293.899567
68 -188.216690 -224.732346 -21.137953 92.889847 -6.015023 -172.132660 293.899567
[L_Toe2_01]
66 200.746536 -219.926590 148.838394 -87.698090 -23.128574 -46.651905 332.896027
67 200.746536 -219.926590 148.838394 -88.049599 -23.544907 -47.159855 332.896027
68 200.746536 -219.926590 148.838394 -88.283531 -23.838392 -47.704731 332.896027
[L_Toe3_01]
66 188.832520 -219.859131 -191.078659 -101.918373 18.752457 -57.965691 347.140900
67 188.832520 -219.859131 -191.078659 -101.696022 18.227768 -58.901878 347.140900
68 188.832520 -219.859131 -191.078659 -101.465424 17.706718 -59.837265 347.140900
[planeAlignerLeft]
66 55.873116 -544.216858 64.501503 169.400360 -80.350967 92.989845 550.866760
67 54.092850 -548.281494 68.201927 169.357193 -79.890877 92.675949 555.148743
68 52.312603 -552.346130 71.902336 169.302170 -79.430870 92.373650 559.457581
[L_Toe1_02]
66 413.761139 0.000477 0.000000 0.001384 -25.923368 0.001384 413.761139
67 413.761139 0.000477 0.000000 0.001384 -25.929337 0.001384 413.761139
68 413.761139 0.000477 0.000000 0.001384 -25.935308 0.001384 413.761139
[L_Toe1_03]
66 464.317322 0.000358 -0.000089 0.004112 56.833546 0.004112 464.317322
67 464.317322 0.000358 -0.000089 0.004092 56.669540 0.004092 464.317322
68 464.317322 0.000358 -0.000089 0.004073 56.505535 0.004073 464.317322
[L_Toe2_02]
66 342.235809 -0.000477 0.000238 0.001185 -74.331619 0.001185 342.235809
67 342.235809 -0.000477 0.000238 0.001185 -74.180008 0.001185 342.235809
68 342.235809 -0.000477 0.000238 0.001185 -74.028397 0.001185 342.235809
[L_Toe2_03]
66 420.210846 -0.000715 0.000000 -179.907822 89.298073 -179.904327 420.210846
67 420.210846 -0.000715 0.000000 0.000000 89.777069 0.003500 420.210846
68 420.210846 -0.000715 0.000000 0.000000 89.747437 0.003496 420.210846
[L_Toe3_02]
66 329.270111 0.000954 0.000000 0.001730 -82.117310 0.001730 329.270111
67 329.270111 0.000954 0.000000 0.001545 -82.018715 0.001545 329.270111
68 329.270111 0.000954 0.000000 0.001361 -81.920273 0.001361 329.270111
[L_Toe3_03]
66 439.137451 -0.001907 0.000954 -179.998337 70.728119 -179.994781 439.137451
67 439.137451 -0.001907 0.000954 -179.998215 71.398659 -179.994675 439.137451
68 439.137451 -0.001907 0.000954 -179.998077 72.069397 -179.994537 439.137451
[planeLockWeightLeft]
66 1000.000244 -0.000058 -0.000099 -0.011826 -0.004376 0.005620 1000.000244
67 1000.000244 -0.000074 -0.000099 -0.011826 -0.004376 0.005620 1000.000244
68 1000.000366 -0.000091 -0.000099 -0.011826 -0.004376 0.005620 1000.000366
[R_Leg01]
66 761.455627 -0.001907 -0.000358 137.396255 -22.011585 22.790201 761.455688
67 761.455627 -0.001907 -0.000358 135.820572 -20.911356 23.423569 761.455688
68 761.455627 -0.001907 -0.000358 133.973602 -19.588610 24.517496 761.455688
[R_Leg02]
66 1441.140625 0.000000 -0.000238 -2.288874 -0.881608 -135.448318 1441.140625
67 1441.140625 0.000000 -0.000238 -2.190418 -0.785315 -133.236633 1441.140625
68 1441.140625 0.000000 -0.000238 -2.088166 -0.692758 -131.021500 1441.140625
[R_Leg03]
66 1686.963989 0.000954 0.001431 0.115895 -0.071091 141.241013 1686.963989
67 1686.963989 0.000954 0.001431 0.111307 -0.067537 140.158722 1686.963989
68 1686.963989 0.000954 0.001431 0.106650 -0.064070 139.076035 1686.963989
[R_Foot]
66 3041.560059 -30.531288 -11.204481 -2.421840 -14.701475 57.557549 3041.734131
67 3041.560059 -30.531288 -11.204481 -2.174585 -15.405684 56.790775 3041.734131
68 3041.560059 -30.531288 -11.204481 -2.057711 -16.248285 56.339928 3041.734131
[planeAlignerRight]
66 -127.151024 -574.017700 -312.907288 -36.587143 -71.457870 -64.273407 666.013977
67 -127.150879 -574.017822 -312.907013 -36.586483 -71.449944 -64.278122 666.013977
68 -127.150711 -574.017883 -312.906708 -36.585770 -71.442001 -64.282837 666.013855
[R_Toe1_01]
66 -188.383347 -224.864899 21.052242 75.622795 -0.549878 -172.595718 294.101532
67 -188.383347 -224.864899 21.052242 75.733696 -0.532892 -172.625015 294.101532
68 -188.383347 -224.864899 21.052242 75.844597 -0.515850 -172.654282 294.101532
[R_Toe2_01]
66 200.637817 -220.002121 -148.787384 -94.438095 31.995380 -59.130730 332.857574
67 200.637817 -220.002121 -148.787384 -94.196358 32.074287 -59.137432 332.857574
68 200.637817 -220.002121 -148.787384 -93.954384 32.153214 -59.143723 332.857574
[R_Toe3_01]
66 188.606735 -220.092957 191.126343 -71.201393 -7.950531 -73.540024 347.192566
67 188.606735 -220.092957 191.126343 -71.390411 -7.989236 -73.560951 347.192566
68 188.606735 -220.092957 191.126343 -71.579437 -8.028017 -73.581795 347.192566
[planeLockWeightRight]
66 1000.000000 0.000305 -0.000436 -0.011823 -0.004379 -0.000027 1000.000000
67 1000.000000 0.000305 -0.000436 -0.011823 -0.004379 -0.000027 1000.000000
68 1000.000000 0.000305 -0.000436 -0.011823 -0.004379 -0.000027 1000.000000
[R_Toe1_02]
66 413.762085 0.000477 -0.000119 0.001394 -24.667917 0.001394 413.762085
67 413.762085 0.000477 -0.000119 0.001394 -24.667353 0.001394 413.762085
68 413.762085 0.000477 -0.000119 0.001394 -24.666792 0.001394 413.762085
[R_Toe1_03]
66 464.317810 0.000000 0.001088 0.006611 69.548210 0.006611 464.317810
67 464.317810 0.000000 0.001088 0.006612 69.551224 0.006612 464.317810
68 464.317810 0.000000 0.001088 0.006613 69.554214 0.006613 464.317810
[R_Toe2_02]
66 342.234741 -0.000954 0.000238 0.001197 -67.221252 0.001197 342.234741
67 342.234741 -0.000954 0.000238 0.001197 -67.221245 0.001197 342.234741
68 342.234741 -0.000954 0.000238 0.001197 -67.221245 0.001197 342.234741
[R_Toe2_03]
66 420.210846 0.000715 -0.000268 0.008161 73.464546 0.008161 420.210846
67 420.210846 0.000715 -0.000268 0.008173 73.488113 0.008173 420.210846
68 420.210846 0.000715 -0.000268 0.008185 73.511673 0.008185 420.210846
[R_Toe3_02]
66 329.270355 -0.000477 -0.000954 0.001185 -74.446144 0.001185 329.270355
67 329.270355 -0.000477 -0.000954 0.001184 -74.450989 0.001184 329.270355
68 329.270355 -0.000477 -0.000954 0.001184 -74.455864 0.001184 329.270355
[R_Toe3_03]
66 439.137939 0.000238 0.001431 -0.011351 83.135017 -0.007848 439.137939
67 439.137939 0.000238 0.001431 -0.011366 83.145973 -0.007863 439.137939
68 439.137939 0.000238 0.001431 -0.011382 83.157021 -0.007879 439.137939
[Rear_Leg02]
66 1162.777710 -0.029802 0.005960 -0.086021 -1.051752 -86.727875 1162.777710
67 1162.777710 -0.029802 0.005960 -0.124794 -1.387381 -87.782867 1162.777710
68 1162.777710 -0.029802 0.005960 -0.149445 -1.675499 -89.347404 1162.777710
[Rear_Leg03]
66 607.192505 -0.013351 -0.073195 0.006593 -0.001704 57.200249 607.192505
67 607.192505 -0.013351 -0.073195 0.006593 -0.001705 57.205883 607.192505
68 607.192505 -0.013351 -0.073195 0.006593 -0.001705 57.211510 607.192505
[Rear_Leg04]
66 995.874512 -0.020504 -0.011921 -0.036600 -0.015179 44.949482 995.874573
67 995.874512 -0.020504 -0.011921 -0.036616 -0.015140 45.072632 995.874573
68 995.874512 -0.020504 -0.011921 -0.036632 -0.015100 45.195770 995.874573
[Rear_Foot]
66 3096.176270 -0.067472 -0.041425 -148.956116 88.219078 45.677551 3096.176270
67 3096.176270 -0.067472 -0.041425 -142.150116 88.130829 52.478798 3096.176270
68 3096.176270 -0.067472 -0.041425 -136.035736 88.018700 58.588177 3096.176270
[planeAlignerCenter]
66 -6.806768 -94.549118 -551.538879 8.969522 -0.001525 179.998215 559.625793
67 -6.956689 -103.006577 -566.596252 9.354353 -0.001519 179.998215 575.925415
68 -7.106610 -111.463974 -581.653503 9.739109 -0.001513 179.998199 592.279907
[Rear_Toe1_01]
66 0.653352 83.966492 -371.173737 0.419111 19.313799 90.845551 380.553192
67 0.653352 83.966492 -371.173737 0.438559 20.676949 90.855042 380.553192
68 0.653352 83.966492 -371.173737 0.458441 22.040848 90.865097 380.553192
[Rear_Toe2_01]
66 178.200760 -294.826019 -362.060547 -5.950440 24.968107 -67.959946 499.765686
67 178.200760 -294.826019 -362.060547 -6.199569 25.030373 -68.210030 499.765686
68 178.200760 -294.826019 -362.060547 -6.449118 25.091646 -68.460526 499.765686
[Rear_Toe3_01]
66 -153.359680 -308.780914 -362.060852 2.804250 23.469942 -111.495560 499.952881
67 -153.359680 -308.780914 -362.060852 2.904808 23.387613 -111.347755 499.952881
68 -153.359680 -308.780914 -362.060852 3.005075 23.305050 -111.200203 499.952881
[planeLockWeightCenter]
66 1000.000000 0.000305 -0.000162 -0.011814 -0.004373 -0.000015 1000.000000
67 1000.000000 0.000305 -0.000156 -0.011814 -0.004373 -0.000015 1000.000000
68 1000.000000 0.000305 -0.000149 -0.011814 -0.004373 -0.000015 1000.000000
[Rear_Toe1_02]
66 379.707825 0.194073 0.000477 -0.002650 -32.444798 -0.002650 379.707855
67 379.707825 0.194073 0.000477 -0.002651 -32.392635 -0.002651 379.707855
68 379.707825 0.194073 0.000477 -0.002652 -32.340462 -0.002652 379.707855
[Rear_Toe1_03]
66 500.129700 0.165701 0.000119 -179.982620 85.786713 -179.986115 500.129761
67 500.129700 0.165701 0.000119 -179.981873 85.978394 -179.985382 500.129761
68 500.129700 0.165701 0.000119 -179.981049 86.170036 -179.984558 500.129761
[Rear_Toe2_02]
66 340.494507 0.000238 -0.000954 0.001211 -61.783665 0.001211 340.494507
67 340.494507 0.000238 -0.000954 0.001215 -60.422039 0.001215 340.494507
68 340.494507 0.000238 -0.000954 0.001219 -59.060230 0.001219 340.494507
[Rear_Toe2_03]
66 433.103577 0.000000 0.000238 0.004328 58.515347 0.004328 433.103546
67 433.103577 0.000000 0.000238 0.004106 56.758892 0.004106 433.103546
68 433.103577 0.000000 0.000238 0.003906 55.002068 0.003906 433.103546
[Rear_Toe3_02]
66 340.494141 -0.000358 -0.000477 -0.002429 -56.354469 -0.002429 340.494171
67 340.494141 -0.000358 -0.000477 -0.002441 -54.733406 -0.002441 340.494171
68 340.494141 -0.000358 -0.000477 -0.002452 -53.112003 -0.002452 340.494171
[Rear_Toe3_03]
66 433.103577 0.001431 -0.000238 0.000100 51.682629 -0.003602 433.103546
67 433.103577 0.001431 -0.000238 0.000190 49.786121 -0.003535 433.103546
68 433.103577 0.001431 -0.000238 0.000274 47.888569 -0.003475 433.103546
[Back_Bone]
66 1312.175781 -701.934692 0.000954 -1.155370 -3.653080 -87.299881 1488.125488
67 1312.175781 -701.934692 0.000954 -1.341229 -3.652637 -86.934868 1488.125488
68 1312.175781 -701.934692 0.000954 -1.527075 -3.651012 -86.569862 1488.125488
[Head]
66 1406.159424 809.709290 0.001431 0.549776 -0.654318 7.210410 1622.625488
67 1406.159424 809.709290 0.001431 0.492565 -0.737099 7.270445 1622.625488
68 1406.159424 809.709290 0.001431 0.435268 -0.819819 7.330564 1622.625488
[Motor_Bone]
66 1158.364380 -417.834747 0.000477 -0.583240 2.827894 -103.156105 1231.419434
67 1158.364380 -417.834747 0.000477 0.001230 -0.033888 -106.020905 1231.419434
68 1158.364380 -417.834747 0.000477 2.853603 -2.893620 -108.875916 1231.419434
[Ping_Mechanism]
66 1307.618530 -460.234955 22.960043 0.000103 -0.000053 82.120995 1386.437744
67 1301.625122 -459.762878 22.313297 0.000103 -0.000053 82.120995 1380.618652
68 1295.631592 -459.290802 21.666542 0.000103 -0.000053 82.120995 1374.801392
[BN_LookIK]
66 193.241119 1380.371704 -0.002861 0.000000 89.965736 -31.038179 1393.832153
67 193.241119 1380.371704 -0.002861 0.000000 89.965736 -31.038179 1393.832153
68 193.241119 1380.371704 -0.002861 0.000000 89.965736 -31.038179 1393.832153
[bottomMouth]
66 -435.092926 615.759399 -0.000954 -0.000022 0.000016 73.527184 753.966492
67 -435.092926 615.759399 -0.000954 -0.000022 0.000016 73.527184 753.966492
68 -435.092926 615.759399 -0.000954 -0.000022 0.000016 73.527184 753.966492
[L_Mouth01]
66 554.440979 7.658243 838.222046 150.204178 23.759130 109.605339 1005.027161
67 554.440979 7.658243 838.222046 150.204178 23.759130 109.605339 1005.027161
68 554.440979 7.658243 838.222046 150.204178 23.759130 109.605339 1005.027161
[L_mouthFront]
66 551.629089 934.514771 339.150421 0.000081 2.804060 79.119301 1136.941284
67 551.629089 934.514771 339.150421 0.000081 2.804060 79.119301 1136.941284
68 551.629089 934.514771 339.150421 0.000081 2.804060 79.119301 1136.941284
[mouthGun]
66 55.332661 1627.420898 0.000000 0.000023 0.000009 -11.038128 1628.361328
67 55.332661 1627.420898 0.000000 0.000023 0.000009 -11.038128 1628.361328
68 55.332661 1627.420898 0.000000 0.000023 0.000009 -11.038128 1628.361328
[R_Mouth01]
66 554.442383 7.659197 -838.223938 29.795891 -23.759109 109.605331 1005.029541
67 554.442383 7.659197 -838.223938 29.795891 -23.759109 109.605331 1005.029541
68 554.442383 7.659197 -838.223938 29.795891 -23.759109 109.605331 1005.029541
[R_mouthFront]
66 551.629089 934.514282 -339.151367 0.000029 -2.803930 79.119133 1136.941162
67 551.629089 934.514282 -339.151367 0.000029 -2.803930 79.119133 1136.941162
68 551.629089 934.514282 -339.151367 0.000029 -2.803930 79.119133 1136.941162
[TopMouth]
66 461.269867 -56.106091 -0.008583 -0.000059 -0.000268 92.025169 464.669525
67 461.269867 -56.106091 -0.008583 -0.000059 -0.000268 92.025169 464.669525
68 461.269867 -56.106091 -0.008583 -0.000059 -0.000268 92.025169 464.669525
[weapon_bone]
66 -987.239868 1448.372803 0.001431 0.000000 89.965736 -31.038221 1752.833740
67 -987.239868 1448.372803 0.001431 0.000000 89.965736 -31.038221 1752.833740
68 -987.239868 1448.372803 0.001431 0.000000 89.965736 -31.038221 1752.833740
